<svg id="_图层_1" data-name="图层 1" xmlns="http://www.w3.org/2000/svg" viewBox="0 0 1080 1080">
    <defs>
        <style>
            .cls-1 {
            fill: #fefefe;
            }

            .cls-1, .cls-2, .cls-3, .cls-4, .cls-5 {
            stroke-width: 0px;
            }

            .cls-2 {
            fill: #010101;
            }

            .cls-3 {
            fill: none;
            }

            .cls-4 {
            fill: #fdfdfd;
            }

            .cls-5 {
            fill: #191919;
            }
        </style>
    </defs>
    <path class="cls-3"
          d="m.1,540C.1,361.56.11,183.12.01,4.68.01,1.06.63.01,4.53.01,361.42.13,718.31.13,1075.21,0c4.17,0,4.8.99,4.79,4.92-.11,356.71-.11,713.43,0,1070.14,0,3.91-.58,4.94-4.78,4.94-356.73-.13-713.45-.13-1070.18,0-4.38,0-5.04-1.1-5.04-5.18.12-178.27.1-356.54.1-534.82Z"/>
    <path class="cls-2"
          d="m647.83,602.63c16.96-16.92,34.69-33,52.3-49.23,5.63-5.19,10.04-11.93,14.15-18.5,10.15-16.22,19.52-32.84,27.09-50.53,2.83-6.61,4.12-13.73,7.36-19.98,6.19-11.94,6.89-25.23,9.48-37.87,2.3-11.2,3.49-23,3.37-34.66-.04-4.1.79-8.07.49-12.24-2.98-41.57-13.59-80.6-37.72-115.19-12.98-18.6-29.2-32.97-51.48-39.73-14.45-4.38-28.67-4.92-43.06-.11-4.13,1.38-17.12,19.71-16.6,23.97.46,3.81,2.46,6.42,6.18,7.6,21.4,6.77,37.15,19.46,45.82,40.93,12.4,30.71,15.01,62.49,10.51,94.72-1.65,11.8-5.03,23.66-7.43,35.45-5.12,25.09-16.34,47.8-25.23,71.4-4.46,11.85-12,22.31-19.97,32.11-11.12,13.68-22.84,26.9-33.17,41.21-12.18,16.87-28.7,27.87-47.28,36.33-7.87,3.58-15.57,7.5-23.63,10.67-11.04,4.34-22.84,5.75-34.08,9.2-21.61,6.63-44,7.22-66.06,6.39-20.72-.78-41.72-3.12-60.92-12.94-16.9-8.65-30.6-21.57-36.55-38.73-7.27-20.97-15.33-42.59-10.53-66.08,1.71-8.36.7-17.25,1.77-25.87,3.05-24.55,9.91-47.75,22.55-69.26,10.44-17.77,19.16-36.56,32-52.89,3.61-4.58,7.22-9.1,11.54-13.06,17.91-16.42,35.8-32.84,54.71-48.12,11.4-9.21,24.52-14.66,38.31-18.67,8.29-2.41,16.48,5.93,15.11,14.83-.28,1.8-.82,3.57-1.33,5.33-1.49,5.13-3.85,8.82-9.84,10.37-18.37,4.75-35.66,12.01-50.04,24.89-4.96,4.44-9.71,9.11-14.54,13.7-.59.56-1.31,1.24-1.47,1.97-1.98,9.07-5.69,17.9-4.59,27.42,1.17,10.15,8.32,15.86,16.39,20.6,5.01,2.95,10.4,5.28,15.31,8.37,10.04,6.31,19.54,5.85,29.11-1.01,12.78-9.16,22.56-21.04,31.72-33.61,18.43-25.29,35.4-51.54,52.48-77.75,6.57-10.09,13.86-19.86,20.74-29.8,8.58-12.39,18.19-24.15,25.38-37.47,4.26-7.91,10.97-12.2,19.19-14.78,6.82-2.15,13.58-4.49,20.41-6.62,20.61-6.42,40.55-3.33,57.75,8.54,25.62,17.69,47.14,40.38,60.97,68.28,14.53,29.29,27.6,59.61,30.26,93.04.86,10.83-1.63,21.2-3.61,31.66-3.34,17.64-4.4,35.73-10.25,52.87-6.51,19.08-14.18,37.71-24,55.33-3.6,6.46-8.86,11.98-13.22,18.03-2.61,3.62-4.72,7.61-7.44,11.14-6.8,8.82-14.15,17.12-22.71,24.36-16.63,14.07-33.07,28.37-50.62,41.32-1.77,1.17-3.1,2.89-4.93,3.99-1.78,1.66-3.57,3.33-5.35,4.99-3.6-.84-1.74-3.28-.62-4.1,4.67-3.41,5.68-9.32,9.55-13.21.34-.34.45-.88.3-1.82-3.1-.08-7.54,2.94-8.85-2.78l.02-.02c1.73-1.31,3.43-2.66,4.8-4.38Z"/>
    <path class="cls-5"
          d="m643.01,607.02c2.16,2.56,4.52,3.62,7.54,1.23.69-.55,1.72-1.2,2.67-.29,1.01.98.95,2.34.11,3.14-4.16,3.97-4.79,10.44-9.9,13.75-1.39.9-2.89,2.26-.81,4.07-4.45,4.65-10.49,6.9-15.75,10.32-17.4,11.33-34.12,23.83-53.32,32.18-17.53,7.62-34.87,15.75-52.55,22.94-12.11,4.93-25.07,8.17-38.34,9.21-.96.08-2,.16-2.85.56-10.43,4.89-22,5.22-32.89,8.25-.31.09-.67.06-.99,0-7.66-1.19-15.1.79-22.65,1.32-12.27.85-24.63.32-36.92.87-11.13.5-22.19-.78-33.28-.63-6.77.09-13.3-1.09-19.59-3.2-.74,1.81.21,2.41,1.01,2.92,15.34,9.88,30.94,19.34,48.39,25.12,6.62,2.2,13.43,4.05,20.3,5.24,20.89,3.62,40.68,11.76,61.54,15.23,27.89,4.65,55.72,10.08,84.02,11.75,14.65.86,29.13-.29,43.63-3.57,9.98-2.25,20.27.6,29.6,4.82,10.44,4.73,19.71,12.54,30.93,14.97,18.03,3.9,36.45,7.16,54.3-1.62,2.38-1.17,3.66-2.96,4.93-5.25,2.73-4.92,5.95-9.57,9.12-14.23,6.48-9.53,10.3-19.78,11.53-31.46,1.68-16,4.88-31.85,9.04-47.43,2.17-8.12,7.72-14.66,12.03-21.72,10.65-17.46,22.02-34.47,31.35-52.72,12.23-23.93,21.44-48.97,27.92-75.02,1.11-4.48,1.43-9.15,2.17-14.07,1.1,2.02.85,3.9.74,5.66-.8,13.44-1.66,26.79-5.19,39.98-7.94,29.66-18.39,58.4-30.28,86.63-3.68,8.73-8.04,17.18-12.14,25.74-5,10.43-6.98,21.53-7,32.96-.02,16.9-2.69,33.47-5.61,50.04-1.37,7.74-7.23,12.98-10.5,19.66-2.47,5.05-5.89,9.64-9.56,13.99-6.54,7.76-16.14,10.33-24.84,14-15.49,6.53-32.01,7.17-48.63,5.74-4.13-.36-7.05-3.03-9.92-5.38-13.49-11.03-29.46-15.51-46.1-19.02-11.7-2.47-23.1-2.68-35.05-2.2-43.37,1.75-86.44-1.56-128.75-12.05-24.9-6.17-49.23-14.14-73.16-23.29-17.87-6.83-32.72-19.05-49.13-28.5-16.17-9.32-27.44-23.51-39.43-37.03-7.9-8.91-16.45-17.5-21.91-28.16-8.87-17.34-19.86-33.85-22.08-54.02-1-9.08-2.9-18.07-4.62-27.06-4-20.85.47-41.48,1.19-62.22,1.03-29.41,11.11-56.63,18.63-84.55,10.14-37.66,31.54-68.6,55.61-98.19,12.82-15.76,26.13-30.84,42.22-43.63,26.57-21.12,54.96-39,86.12-52.28,16.22-6.91,33.06-12.38,50.95-13.42,1.82-.11,3.63-.2,5.57.09-6.2,3.67-12.97,5.82-19.69,8.26-24.39,8.85-49.57,16.84-70.35,32.63-42.34,32.16-80.47,68.71-108.76,114.41-13.03,21.04-24.55,42.97-30.89,66.9-5.39,20.36-9.76,41.09-12.6,62.05-2.14,15.82-5.83,31.43-5.68,47.55.21,21.46,4.39,42.3,9.62,62.96,2.01,7.93,5.76,15.22,10.29,22.09,2.46,3.74,4.72,7.58,6.27,11.87,2,5.54,7.06,8.48,11.4,11.88,5.77,4.5,11.92,8.46,18.12,12.38,28.04,17.72,58.89,21.8,91.13,19.05,25.05-2.14,50.09-4.52,74.77-9.46,16.29-3.26,32.37-7.57,48.57-11.19,19.31-4.31,35.12-15.54,52.71-23.19,18.54-8.06,34.8-19.92,51.4-31.13,8.2-5.54,14.94-13.19,24.25-17.22Z"/>
    <path class="cls-5" d="m647.83,602.63c-.75,2.39-2.29,3.91-4.8,4.38,1.17-1.93,2.83-3.32,4.8-4.38Z"/>
    <path class="cls-5" d="m647.98,623.94c1.2-1.88,2.46-3.68,4.93-3.99-1.28,1.77-2.54,3.58-4.93,3.99Z"/>
    <path class="cls-1"
          d="m382.75,601.5c-16.79.81-29.25-9.48-37.47-25.95-5.05-10.11-9-20.65-8.62-32.26.37-11.18,6.71-18.76,15.48-24.58,14.27-9.47,30.06-15.31,46.39-20.41,12.8-3.99,24.92-10.21,37.21-15.74,3.76-1.69,7.7-2.04,11.56-2.76,4.19-.78,7.48,2.54,7.11,6.84-1.58,18.44-3.77,36.76-11.57,53.9-1.78,3.92-3.12,8.07-4.37,12.2-4.03,13.39-11.84,24.19-21.5,34.19-8.84,9.15-18.76,14.64-34.23,14.57Z"/>
    <path class="cls-1"
          d="m492.53,596.22c-2.81-.3-5.62-.82-8.44-.87-9.66-.17-14.74-6.14-17.85-14.25-5.15-13.43-6.28-27-1.85-41.04,4.55-14.41,8.42-29.05,12.5-43.61,1.83-6.53,4.79-12.35,9.54-17.28,1.75-1.81,3.39-2.08,5.77-1.36,14.65,4.37,28,11.39,40.51,20.01,8.61,5.94,17.23,11.99,24.61,19.45,8.04,8.13,14.63,17.28,16.36,29.04,1.06,7.21-1.22,12.92-6.27,18.5-14.55,16.07-57.4,33.18-74.88,31.41Z"/>
    <path class="cls-1"
          d="m640.03,431.11c.45,23.9-8.64,44.3-23.27,62.64-2.08,2.61-4.63,4.85-7.54,6.49-6.23,3.51-12.62,5.03-19.31.97-13.68-8.31-25.85-18.74-38.88-27.97-7.74-5.48-15.67-10.53-23.84-15.26-3.84-2.22-7.08-5.01-9.64-8.53-2.54-3.49-1.85-7.22,1.49-9.58,9.76-6.9,19.59-13.7,29.29-20.69,7.34-5.29,15.05-9.95,23.56-12.95,10.99-3.88,20.87-10.34,32.19-13.38,5.05-1.36,10.13-1.86,15.32-1.02,10.69,1.73,17.26,8.13,19.2,18.8,1.23,6.76,1.17,13.59,1.43,20.49Z"/>
    <path class="cls-1"
          d="m641.89,324.06c-.44,5.05.39,10.42-3.74,14.56-.39.39-.55,1.25-.46,1.85.92,6.47-4.19,7.72-8.41,9.36-4.47,1.74-7.16,5.74-11.23,7.94-1.44.78-2.55,2.42-4.04,2.83-9.84,2.7-17.88,8.76-26.4,13.87-8.64,5.19-18.48,7.5-27.37,11.99-10.81,5.45-21.49,11.18-32.11,17-5.02,2.75-10.59,3.88-15.79,6.06-2.98,1.25-5.75.06-7.47-2.43-1.64-2.36-1.27-5.02.51-7.41,5.78-7.75,11.56-15.49,17.28-23.29,21.52-29.34,41.88-59.56,65.96-86.95,2.74-3.12,5.6-6.08,7.94-9.56,2.3-3.42,5.68-3.53,9.35-2.32,9,2.97,16.27,8.3,21.67,16.03,4.29,6.14,10.98,10.56,12.57,18.71.77,3.91,1.99,7.7,1.74,11.76Z"/>
    <path class="cls-4"
          d="m356.46,487.98c-14.66-.29-22.22-12.43-15.99-26.2,2.86-6.33,5.89-12.77,9.99-18.3,8.96-12.09,21.8-17.01,36.54-16.75,2.93.05,6.01-1.3,8.73-.04,12.71,5.89,26.53,9.23,38.47,16.84,2.09,1.33,3.68,3.21,4.87,5.54,2.86,5.58.46,11.23-5.77,11.74-11.31.91-21.41,4.87-31.47,9.87-11.58,5.76-23.74,10.36-35.65,15.47-3.1,1.33-6.33,1.99-9.72,1.84Z"/>
</svg>